<?xml version="1.0" encoding="UTF-8" standalone="no"?>
<svg
   xml:space="preserve"
   width="585.8277"
   height="286.61459"
   viewBox="0 0 585.8277 286.61459"
   version="1.1"
   id="svg2709"
   xmlns="http://www.w3.org/2000/svg"
   xmlns:svg="http://www.w3.org/2000/svg"><defs
     id="defs2713" /><path
     d="m 222.40669,0 c -13.27491,0 -26.2245,7.2042444 -33.14275,15.992212 l -68.1031,86.363658 c -6.91806,8.77678 -11.49788,6.63745 -10.35712,-4.06376 l 9.07177,-78.131291 C 121.11749,9.0741561 112.88513,0 101.60455,0 H 33.09942 L 0,286.6144 h 68.726008 c 11.283778,0 21.533045,-9.21676 22.785643,-20.16042 l 11.685809,-101.38726 52.05117,103.32747 c 4.95249,10.03158 17.06548,18.22021 30.77177,18.22021 h 75.9662 L 197.10886,158.9573 c -7.06305,-11.65504 -6.30973,-23.46946 2.72608,-33.75628 L 285.54693,16.433777 c 6.91806,-8.7446298 11.86675,-7.5894906 10.59957,4.197965 l -5.22349,43.889311 c -1.2564,11.08327 6.96139,20.157023 18.26374,20.157023 h 60.92043 c 11.2734,0 18.73467,8.789962 18.06503,20.134064 l -18.51738,161.6706 c -1.33588,11.07049 6.78784,20.13186 18.09379,20.13186 h 71.54955 l 20.46139,-181.81684 c 1.22743,-11.644869 11.50146,-20.119483 22.80361,-20.119483 h 73.46101 L 585.82768,0 Z"
     style="fill:#15366f;fill-opacity:1;fill-rule:nonzero;stroke:none;stroke-width:3.70709"
     id="path2707" /></svg>
