<?xml version="1.0" encoding="UTF-8" standalone="no"?>
<!-- Created with Inkscape (http://www.inkscape.org/) -->

<svg
   width="210mm"
   height="297mm"
   viewBox="0 0 210 297"
   version="1.1"
   id="svg1"
   xml:space="preserve"
   inkscape:version="1.4.2 (ebf0e94, 2025-05-08)"
   sodipodi:docname="kt_logo_white.svg"
   xmlns:inkscape="http://www.inkscape.org/namespaces/inkscape"
   xmlns:sodipodi="http://sodipodi.sourceforge.net/DTD/sodipodi-0.dtd"
   xmlns="http://www.w3.org/2000/svg"
   xmlns:svg="http://www.w3.org/2000/svg"><sodipodi:namedview
     id="namedview1"
     pagecolor="#ffffff"
     bordercolor="#000000"
     borderopacity="0.25"
     inkscape:showpageshadow="2"
     inkscape:pageopacity="0.0"
     inkscape:pagecheckerboard="0"
     inkscape:deskcolor="#d1d1d1"
     inkscape:document-units="mm"
     inkscape:zoom="1.0396254"
     inkscape:cx="397.25847"
     inkscape:cy="561.25984"
     inkscape:window-width="3440"
     inkscape:window-height="1369"
     inkscape:window-x="-8"
     inkscape:window-y="-8"
     inkscape:window-maximized="1"
     inkscape:current-layer="layer1" /><defs
     id="defs1" /><g
     inkscape:label="Layer 1"
     inkscape:groupmode="layer"
     id="layer1"><path
       d="m 83.580296,72.143522 c -3.51232,0 -6.93857,1.906123 -8.76902,4.231273 l -18.01895,22.850384 c -1.8304,2.322191 -3.04215,1.756161 -2.74032,-1.075203 l 2.40024,-20.672237 c 0.32861,-2.933346 -1.84953,-5.334217 -4.83419,-5.334217 h -18.12531 l -8.75756,75.833388 h 18.18376 c 2.9855,0 5.69728,-2.4386 6.0287,-5.33411 l 3.09187,-26.82538 13.77187,27.33873 c 1.31035,2.65419 4.51525,4.82076 8.1417,4.82076 h 20.09939 l -17.16557,-33.77594 c -1.86876,-3.08373 -1.66945,-6.20962 0.72128,-8.93135 L 100.28615,76.491626 c 1.83041,-2.313684 3.13975,-2.008053 2.80447,1.110711 l -1.38205,11.61238 c -0.33242,2.932449 1.84187,5.333213 4.83228,5.333213 h 16.11853 c 2.98276,0 4.95688,2.325677 4.77971,5.327137 l -4.89939,42.775343 c -0.35345,2.92907 1.79595,5.32656 4.78731,5.32656 h 18.93082 l 5.41374,-48.105707 c 0.32476,-3.081039 3.0431,-5.32328 6.03346,-5.32328 h 19.43656 l 2.59384,-22.404461 z"
       style="fill:#15366f;fill-opacity:1;fill-rule:nonzero;stroke:none;stroke-width:0.980834"
       id="path2707" /></g></svg>
